<svg width="158" height="80" viewBox="0 0 158 80" fill="none" xmlns="http://www.w3.org/2000/svg"><path d="M4 0.5H79.5V79.5H4C2.067 79.5 0.5 77.933 0.5 76V4C0.5 2.067 2.067 0.5 4 0.5Z" fill="white" stroke="#EDEDED"></path><rect x="6" y="5" width="16" height="4" rx="1" fill="#D9D9D9"></rect><rect x="26" y="5" width="16" height="4" rx="1" fill="#D9D9D9"></rect><rect x="16" y="54" width="12" height="4" rx="1" fill="#D9D9D9"></rect><rect x="16" y="29" width="24" height="4" rx="1" fill="#D9D9D9"></rect><rect x="16.5" y="39.5" width="100" height="8" rx="1.5" fill="white" stroke="#E6E6E6"></rect><rect x="60.5" y="4.5" width="31" height="6" rx="1.5" fill="white" stroke="#E6E6E6"></rect><rect x="32" y="54" width="16" height="4" rx="1" fill="#D9D9D9"></rect><rect x="52" y="54" width="12" height="4" rx="1" fill="#D9D9D9"></rect><rect x="16" y="60" width="12" height="2" rx="1" fill="#FF6C37"></rect><rect y="14" width="151" height="1" fill="#F2F2F2"></rect><g clip-path="url(#clip0_26481_76252)"><rect x="79" width="80" height="80" fill="#212121"></rect><rect x="63.5" y="39.5" width="56" height="8" rx="1.5" fill="#212121" stroke="#424242"></rect><rect x="123" y="39" width="15" height="9" rx="2" fill="#077BED"></rect><rect x="79" y="14" width="78" height="1" fill="#2B2B2B"></rect><rect x="133" y="4" width="6" height="6" rx="3" fill="#6B6B6B"></rect><rect x="136.5" y="2.5" width="4" height="4" rx="2" fill="#FF6C37" stroke="#212121"></rect><rect x="123" y="4" width="6" height="6" rx="3" fill="#6B6B6B"></rect><rect x="143" y="4" width="6" height="6" rx="3" fill="#6B6B6B"></rect><rect x="65.5" y="4.5" width="31" height="6" rx="1.5" stroke="#424242"></rect><path d="M79 0.5H154C155.933 0.5 157.5 2.067 157.5 4V76C157.5 77.933 155.933 79.5 154 79.5H79" stroke="#323232"></path></g><defs><clipPath id="clip0_26481_76252"><path d="M79 0H154C156.209 0 158 1.79086 158 4V76C158 78.2091 156.209 80 154 80H79V0Z" fill="white"></path></clipPath></defs></svg>
