<svg width="158" height="80" viewBox="0 0 158 80" fill="none" xmlns="http://www.w3.org/2000/svg"><g clip-path="url(#clip0_26478_76183)"><rect width="158" height="80" rx="4" fill="white"></rect><rect x="6" y="5" width="16" height="4" rx="1" fill="#D9D9D9"></rect><rect x="26" y="5" width="16" height="4" rx="1" fill="#D9D9D9"></rect><rect x="16" y="54" width="12" height="4" rx="1" fill="#D9D9D9"></rect><rect x="16" y="29" width="24" height="4" rx="1" fill="#D9D9D9"></rect><rect x="17.1316" y="39.5" width="103.987" height="8" rx="1.5" fill="white" stroke="#E6E6E6"></rect><rect x="62.8684" y="4.5" width="32.2632" height="6" rx="1.5" fill="white" stroke="#E6E6E6"></rect><rect x="126" y="39" width="15" height="9" rx="2" fill="#077BED"></rect><rect x="32" y="54" width="16" height="4" rx="1" fill="#D9D9D9"></rect><rect x="52" y="54" width="12" height="4" rx="1" fill="#D9D9D9"></rect><rect x="16" y="60" width="12" height="2" rx="1" fill="#FF6C37"></rect><rect y="14" width="158" height="1" fill="#F2F2F2"></rect><rect x="136" y="4" width="6" height="6" rx="3" fill="#D9D9D9"></rect><rect x="139.5" y="1.5" width="4" height="4" rx="2" fill="#FF6C37" stroke="white"></rect><rect x="126" y="4" width="6" height="6" rx="3" fill="#D9D9D9"></rect><rect x="146" y="4" width="6" height="6" rx="3" fill="#D9D9D9"></rect></g><rect x="0.5" y="0.5" width="157" height="79" rx="3.5" stroke="#EDEDED"></rect><defs><clipPath id="clip0_26478_76183"><rect width="158" height="80" rx="4" fill="white"></rect></clipPath></defs></svg>
